<svg xmlns="http://www.w3.org/2000/svg" viewBox="0 0 1000 1000"><rect width="1000" height="1000" fill="#efe2d5"/><circle cx="500" cy="355" r="150" fill="#d4ad91"/><path d="M260 870c30-230 160-355 240-355s210 125 240 355" fill="#b77c88"/><path d="M390 330c40-110 180-160 270-55-38-130-250-165-320 20-35 90 5 188 78 232-44-53-62-126-28-197Z" fill="#59433b"/><circle cx="450" cy="365" r="8" fill="#4b3933"/><circle cx="555" cy="365" r="8" fill="#4b3933"/><path d="M455 430c35 24 70 24 105 0" fill="none" stroke="#8d5e52" stroke-width="7" stroke-linecap="round"/><circle cx="500" cy="355" r="220" fill="none" stroke="#c9a66b" stroke-width="3" opacity=".6"/><path d="M500 95v55M500 560v55M240 355h55M705 355h55" stroke="#c9a66b" stroke-width="3"/></svg>
